<svg viewBox="0 0 200 100" xmlns="http://www.w3.org/2000/svg">
  <defs>
    <linearGradient id="whiteGradient" x1="0%" y1="0%" x2="100%" y2="0%">
      <stop offset="0%" stop-color="#ffffff" /> 
      <stop offset="100%" stop-color="#e5e5e5" />
    </linearGradient>
  </defs>
  
  <!-- Black Background -->
  <rect width="200" height="100" fill="#000000"/>
  
  <!-- K -->
  <path 
    d="M30 30 L30 70 L50 50 L60 70" 
    stroke="url(#whiteGradient)" 
    stroke-width="8" 
    fill="none" 
    stroke-linecap="round" 
    stroke-linejoin="round"
  />
  
  <!-- E -->
  <path 
    d="M60 70 C 70 70, 70 50, 80 50 H 95 C 105 50, 105 70, 95 70 H 80"
    stroke="url(#whiteGradient)" 
    stroke-width="8" 
    fill="none" 
    stroke-linecap="round"
  />

  <!-- R -->
  <path 
    d="M115 70 V 50 C 115 40, 135 40, 135 50"
    stroke="url(#whiteGradient)" 
    stroke-width="8" 
    fill="none" 
    stroke-linecap="round"
  />

  <!-- N -->
  <path 
    d="M150 70 V 50 C 150 40, 170 40, 170 50 V 70" 
    stroke="url(#whiteGradient)" 
    stroke-width="8" 
    fill="none" 
    stroke-linecap="round"
  />
  
  <!-- Technical Guides -->
  <circle cx="60" cy="70" r="1.5" fill="#ffffff" opacity="0.2" />
  <circle cx="115" cy="50" r="1.5" fill="#ffffff" opacity="0.2" />
  
  <line x1="25" y1="78" x2="175" y2="78" stroke="white" stroke-width="0.5" opacity="0.1" stroke-dasharray="4 4" />
  <line x1="25" y1="22" x2="175" y2="22" stroke="white" stroke-width="0.5" opacity="0.1" stroke-dasharray="4 4" />
</svg>